<svg width="24" height="24" viewBox="0 0 24 24" fill="none" xmlns="http://www.w3.org/2000/svg">
<path d="M2.58789 0C2.85371 0 3.10891 0.105742 3.29688 0.293945C3.48484 0.482149 3.59082 0.737748 3.59082 1.00391V3.42676C5.16957 1.88434 7.14152 0.806218 9.29102 0.310547C11.4408 -0.185113 13.6856 -0.0787134 15.7793 0.617188C17.873 1.31313 19.7351 2.57226 21.1621 4.25684C22.5891 5.94139 23.5261 7.98611 23.8701 10.168L23.8662 10.167C24.1048 11.7559 24.0235 13.3767 23.627 14.9336C23.2303 16.4906 22.5263 17.953 21.5566 19.2334C20.587 20.5139 19.3708 21.5869 17.9805 22.3896C16.5902 23.1923 15.0535 23.7084 13.4609 23.9072C11.8685 24.106 10.2525 23.984 8.70801 23.5479C7.16338 23.1116 5.72084 22.37 4.4668 21.3672C3.21302 20.3645 2.17263 19.1205 1.40625 17.709C0.639777 16.2971 0.162401 14.7456 0.00390625 13.1465C-0.00901257 13.0068 0.00732688 12.8655 0.0517578 12.7324C0.0962122 12.5994 0.168467 12.4768 0.262695 12.373C0.356876 12.2694 0.47172 12.1868 0.599609 12.1299C0.727723 12.0729 0.866664 12.0433 1.00684 12.043C1.25241 12.0391 1.49089 12.127 1.6748 12.29C1.85868 12.4531 1.975 12.6793 2.00098 12.9238C2.19921 15.2005 3.16864 17.3415 4.74805 18.9912C6.32741 20.6407 8.42241 21.7006 10.6855 21.9951C12.9487 22.2896 15.2444 21.8009 17.1924 20.6104C19.1403 19.4197 20.6236 17.5983 21.3965 15.4482C22.1693 13.2981 22.1858 10.9476 21.4424 8.78711C20.6988 6.62659 19.2402 4.78447 17.3086 3.56738C15.3769 2.35033 13.0874 1.83102 10.8203 2.09473C8.55318 2.35847 6.44342 3.38944 4.8418 5.01758H7.59961C7.86539 5.0176 8.12065 5.12334 8.30859 5.31152C8.4965 5.49972 8.60156 5.75536 8.60156 6.02148C8.60153 6.28759 8.49652 6.54327 8.30859 6.73145C8.12066 6.91959 7.86537 7.02537 7.59961 7.02539H3.59082C3.05926 7.02539 2.54876 6.81381 2.17285 6.4375C1.79693 6.06109 1.58594 5.5499 1.58594 5.01758V1.00391C1.58594 0.737746 1.69192 0.482149 1.87988 0.293945C2.06776 0.105938 2.32227 7.29674e-05 2.58789 0ZM12.0312 6.02148C12.2971 6.02148 12.5523 6.12723 12.7402 6.31543C12.9282 6.50363 13.0342 6.75926 13.0342 7.02539V11.627L15.7471 14.3438C15.9296 14.533 16.0306 14.7867 16.0283 15.0498C16.026 15.3129 15.9202 15.5649 15.7344 15.751C15.5487 15.9367 15.2976 16.0425 15.0352 16.0449C14.7724 16.0472 14.5191 15.9455 14.3301 15.7627L11.3232 12.752C11.1353 12.5639 11.0294 12.309 11.0293 12.043V7.02539C11.0293 6.75923 11.1353 6.50363 11.3232 6.31543C11.5111 6.12738 11.7656 6.02156 12.0312 6.02148Z" fill="#B4B4B4"/>
<path d="M2.58789 0C2.85371 0 3.10891 0.105742 3.29688 0.293945C3.48484 0.482149 3.59082 0.737748 3.59082 1.00391V3.42676C5.16957 1.88434 7.14152 0.806218 9.29102 0.310547C11.4408 -0.185113 13.6856 -0.0787134 15.7793 0.617188C17.873 1.31313 19.7351 2.57226 21.1621 4.25684C22.5891 5.94139 23.5261 7.98611 23.8701 10.168L23.8662 10.167C24.1048 11.7559 24.0235 13.3767 23.627 14.9336C23.2303 16.4906 22.5263 17.953 21.5566 19.2334C20.587 20.5139 19.3708 21.5869 17.9805 22.3896C16.5902 23.1923 15.0535 23.7084 13.4609 23.9072C11.8685 24.106 10.2525 23.984 8.70801 23.5479C7.16338 23.1116 5.72084 22.37 4.4668 21.3672C3.21302 20.3645 2.17263 19.1205 1.40625 17.709C0.639777 16.2971 0.162401 14.7456 0.00390625 13.1465C-0.00901257 13.0068 0.00732688 12.8655 0.0517578 12.7324C0.0962122 12.5994 0.168467 12.4768 0.262695 12.373C0.356876 12.2694 0.47172 12.1868 0.599609 12.1299C0.727723 12.0729 0.866664 12.0433 1.00684 12.043C1.25241 12.0391 1.49089 12.127 1.6748 12.29C1.85868 12.4531 1.975 12.6793 2.00098 12.9238C2.19921 15.2005 3.16864 17.3415 4.74805 18.9912C6.32741 20.6407 8.42241 21.7006 10.6855 21.9951C12.9487 22.2896 15.2444 21.8009 17.1924 20.6104C19.1403 19.4197 20.6236 17.5983 21.3965 15.4482C22.1693 13.2981 22.1858 10.9476 21.4424 8.78711C20.6988 6.62659 19.2402 4.78447 17.3086 3.56738C15.3769 2.35033 13.0874 1.83102 10.8203 2.09473C8.55318 2.35847 6.44342 3.38944 4.8418 5.01758H7.59961C7.86539 5.0176 8.12065 5.12334 8.30859 5.31152C8.4965 5.49972 8.60156 5.75536 8.60156 6.02148C8.60153 6.28759 8.49652 6.54327 8.30859 6.73145C8.12066 6.91959 7.86537 7.02537 7.59961 7.02539H3.59082C3.05926 7.02539 2.54876 6.81381 2.17285 6.4375C1.79693 6.06109 1.58594 5.5499 1.58594 5.01758V1.00391C1.58594 0.737746 1.69192 0.482149 1.87988 0.293945C2.06776 0.105938 2.32227 7.29674e-05 2.58789 0ZM12.0312 6.02148C12.2971 6.02148 12.5523 6.12723 12.7402 6.31543C12.9282 6.50363 13.0342 6.75926 13.0342 7.02539V11.627L15.7471 14.3438C15.9296 14.533 16.0306 14.7867 16.0283 15.0498C16.026 15.3129 15.9202 15.5649 15.7344 15.751C15.5487 15.9367 15.2976 16.0425 15.0352 16.0449C14.7724 16.0472 14.5191 15.9455 14.3301 15.7627L11.3232 12.752C11.1353 12.5639 11.0294 12.309 11.0293 12.043V7.02539C11.0293 6.75923 11.1353 6.50363 11.3232 6.31543C11.5111 6.12738 11.7656 6.02156 12.0312 6.02148Z" stroke="#B4B4B4"/>
</svg>
